# xmcd
#
# Track frame offsets:
#	150
#	18814
#	36572
#	58251
#	80338
#	101190
#	122438
#	144691
#	170779
#	192176
#	208069
#	229644
#	257460
#	279124
#	297039
#	317291
#
# Disc length: 4421 seconds
# Revision: 1
# Processed by: cddbd v1.5.2PL0 Copyright (c) Steve Scherf et al.
# Submitted via: dBpowerAMP V12.0
#
DISCID=de114310
DTITLE=Studebaker John's Maxwell Street Kings - Kingsville Jukin'
DYEAR=2013
DGENRE=Blues Chicago
TTITLE0=Mississippi To Chicago
TTITLE1=When They Played the Real Blues
TTITLE2=She's All Right
TTITLE3=Shake It Down Now
TTITLE4=The Rest Is Up To You
TTITLE5=I Am The Houserocker
TTITLE6=Howlin' In The Moonlight
TTITLE7=In Case Of Fire
TTITLE8=Ride Again
TTITLE9=Kingsville Jukin'
TTITLE10=Wicked Soul
TTITLE11=Cold Black Night
TTITLE12=Mojo Hand
TTITLE13=Shake Some For Me
TTITLE14=Right Tonight
TTITLE15=Bad Gasoline
EXTD=
EXTT0=
EXTT1=
EXTT2=
EXTT3=
EXTT4=
EXTT5=
EXTT6=
EXTT7=
EXTT8=
EXTT9=
EXTT10=
EXTT11=
EXTT12=
EXTT13=
EXTT14=
EXTT15=
PLAYORDER=
